<svg xmlns="http://www.w3.org/2000/svg" xmlns:xlink="http://www.w3.org/1999/xlink" width="50" zoomAndPan="magnify" viewBox="0 0 37.5 37.499999" height="50" preserveAspectRatio="xMidYMid meet" version="1.0"><defs><g/></defs><g fill="#000000" fill-opacity="1"><g transform="translate(1.79253, 15.74352)"><g><path d="M 3.796875 -3.546875 C 3.796875 -2.453125 3.707031 -1.609375 3.53125 -1.015625 C 3.207031 0.0351562 2.6875 0.863281 1.96875 1.46875 C 1.894531 1.539062 1.832031 1.578125 1.78125 1.578125 C 1.726562 1.578125 1.675781 1.550781 1.625 1.5 C 1.476562 1.3125 1.242188 1.039062 0.921875 0.6875 C 0.734375 0.53125 0.457031 0.285156 0.09375 -0.046875 C 0.0390625 -0.0976562 0.015625 -0.140625 0.015625 -0.171875 C 0.015625 -0.210938 0.0390625 -0.253906 0.09375 -0.296875 C 0.414062 -0.578125 0.617188 -0.769531 0.703125 -0.875 C 0.867188 -1.082031 1 -1.335938 1.09375 -1.640625 C 1.21875 -2.066406 1.28125 -2.757812 1.28125 -3.71875 C 1.28125 -5.957031 1.203125 -7.691406 1.046875 -8.921875 C 1.035156 -8.960938 1.03125 -8.992188 1.03125 -9.015625 C 1.03125 -9.097656 1.097656 -9.140625 1.234375 -9.140625 C 1.378906 -9.140625 1.585938 -9.128906 1.859375 -9.109375 C 2.128906 -9.097656 2.332031 -9.09375 2.46875 -9.09375 C 2.601562 -9.09375 2.796875 -9.097656 3.046875 -9.109375 C 3.304688 -9.128906 3.503906 -9.140625 3.640625 -9.140625 C 3.765625 -9.140625 3.828125 -9.082031 3.828125 -8.96875 C 3.828125 -8.363281 3.820312 -7.457031 3.8125 -6.25 C 3.800781 -5.050781 3.796875 -4.148438 3.796875 -3.546875 Z M 3.796875 -3.546875 "/></g></g><g transform="translate(6.291915, 15.74352)"><g><path d="M 8.390625 -3.203125 C 8.390625 -2.097656 8.253906 -1.34375 7.984375 -0.9375 C 7.503906 -0.195312 6.289062 0.171875 4.34375 0.171875 C 3.46875 0.171875 2.789062 0.101562 2.3125 -0.03125 C 1.5625 -0.25 1.070312 -0.660156 0.84375 -1.265625 C 0.726562 -1.566406 0.671875 -2.101562 0.671875 -2.875 C 0.671875 -3.050781 0.675781 -3.316406 0.6875 -3.671875 C 0.707031 -4.023438 0.71875 -4.289062 0.71875 -4.46875 C 0.71875 -4.96875 0.691406 -5.722656 0.640625 -6.734375 C 0.585938 -7.742188 0.5625 -8.5 0.5625 -9 C 0.5625 -9.101562 0.609375 -9.15625 0.703125 -9.15625 C 0.972656 -9.15625 1.375 -9.144531 1.90625 -9.125 C 2.445312 -9.101562 2.847656 -9.09375 3.109375 -9.09375 C 3.222656 -9.09375 3.28125 -9.039062 3.28125 -8.9375 C 3.28125 -8.363281 3.257812 -7.503906 3.21875 -6.359375 C 3.175781 -5.210938 3.15625 -4.351562 3.15625 -3.78125 C 3.15625 -3.101562 3.226562 -2.644531 3.375 -2.40625 C 3.570312 -2.070312 3.972656 -1.90625 4.578125 -1.90625 C 5.472656 -1.90625 5.921875 -2.335938 5.921875 -3.203125 C 5.921875 -3.835938 5.90625 -4.785156 5.875 -6.046875 C 5.84375 -7.304688 5.828125 -8.253906 5.828125 -8.890625 C 5.828125 -9.023438 5.878906 -9.09375 5.984375 -9.09375 C 6.242188 -9.09375 6.628906 -9.101562 7.140625 -9.125 C 7.660156 -9.144531 8.050781 -9.15625 8.3125 -9.15625 C 8.4375 -9.15625 8.5 -9.101562 8.5 -9 C 8.5 -8.5 8.476562 -7.742188 8.4375 -6.734375 C 8.394531 -5.722656 8.375 -4.96875 8.375 -4.46875 C 8.375 -4.320312 8.375 -4.109375 8.375 -3.828125 C 8.382812 -3.546875 8.390625 -3.335938 8.390625 -3.203125 Z M 8.390625 -3.203125 "/></g></g><g transform="translate(15.362413, 15.74352)"><g><path d="M 5.21875 -5.015625 C 5.21875 -4.890625 5.1875 -4.71875 5.125 -4.5 C 5.070312 -4.320312 5.019531 -4.144531 4.96875 -3.96875 C 4.945312 -3.75 4.90625 -3.429688 4.84375 -3.015625 C 4.832031 -2.953125 4.78125 -2.921875 4.6875 -2.921875 C 4.519531 -2.921875 4.269531 -2.921875 3.9375 -2.921875 C 3.601562 -2.929688 3.351562 -2.9375 3.1875 -2.9375 C 2.726562 -2.9375 2.113281 -2.894531 1.34375 -2.8125 C 1.300781 -2.8125 1.1875 -2.796875 1 -2.765625 C 0.84375 -2.742188 0.722656 -2.734375 0.640625 -2.734375 C 0.523438 -2.734375 0.46875 -2.835938 0.46875 -3.046875 C 0.46875 -3.160156 0.539062 -3.472656 0.6875 -3.984375 C 0.832031 -4.484375 0.9375 -4.800781 1 -4.9375 C 1.03125 -5.007812 1.085938 -5.046875 1.171875 -5.046875 C 1.335938 -5.046875 1.59375 -5.035156 1.9375 -5.015625 C 2.28125 -5.003906 2.535156 -5 2.703125 -5 C 3.054688 -5 3.644531 -5.050781 4.46875 -5.15625 C 4.894531 -5.207031 5.097656 -5.234375 5.078125 -5.234375 C 5.171875 -5.234375 5.21875 -5.160156 5.21875 -5.015625 Z M 5.21875 -5.015625 "/></g></g><g transform="translate(21.035551, 15.74352)"><g><path d="M 3.796875 -3.546875 C 3.796875 -2.453125 3.707031 -1.609375 3.53125 -1.015625 C 3.207031 0.0351562 2.6875 0.863281 1.96875 1.46875 C 1.894531 1.539062 1.832031 1.578125 1.78125 1.578125 C 1.726562 1.578125 1.675781 1.550781 1.625 1.5 C 1.476562 1.3125 1.242188 1.039062 0.921875 0.6875 C 0.734375 0.53125 0.457031 0.285156 0.09375 -0.046875 C 0.0390625 -0.0976562 0.015625 -0.140625 0.015625 -0.171875 C 0.015625 -0.210938 0.0390625 -0.253906 0.09375 -0.296875 C 0.414062 -0.578125 0.617188 -0.769531 0.703125 -0.875 C 0.867188 -1.082031 1 -1.335938 1.09375 -1.640625 C 1.21875 -2.066406 1.28125 -2.757812 1.28125 -3.71875 C 1.28125 -5.957031 1.203125 -7.691406 1.046875 -8.921875 C 1.035156 -8.960938 1.03125 -8.992188 1.03125 -9.015625 C 1.03125 -9.097656 1.097656 -9.140625 1.234375 -9.140625 C 1.378906 -9.140625 1.585938 -9.128906 1.859375 -9.109375 C 2.128906 -9.097656 2.332031 -9.09375 2.46875 -9.09375 C 2.601562 -9.09375 2.796875 -9.097656 3.046875 -9.109375 C 3.304688 -9.128906 3.503906 -9.140625 3.640625 -9.140625 C 3.765625 -9.140625 3.828125 -9.082031 3.828125 -8.96875 C 3.828125 -8.363281 3.820312 -7.457031 3.8125 -6.25 C 3.800781 -5.050781 3.796875 -4.148438 3.796875 -3.546875 Z M 3.796875 -3.546875 "/></g></g><g transform="translate(25.534935, 15.74352)"><g><path d="M 8.390625 -3.203125 C 8.390625 -2.097656 8.253906 -1.34375 7.984375 -0.9375 C 7.503906 -0.195312 6.289062 0.171875 4.34375 0.171875 C 3.46875 0.171875 2.789062 0.101562 2.3125 -0.03125 C 1.5625 -0.25 1.070312 -0.660156 0.84375 -1.265625 C 0.726562 -1.566406 0.671875 -2.101562 0.671875 -2.875 C 0.671875 -3.050781 0.675781 -3.316406 0.6875 -3.671875 C 0.707031 -4.023438 0.71875 -4.289062 0.71875 -4.46875 C 0.71875 -4.96875 0.691406 -5.722656 0.640625 -6.734375 C 0.585938 -7.742188 0.5625 -8.5 0.5625 -9 C 0.5625 -9.101562 0.609375 -9.15625 0.703125 -9.15625 C 0.972656 -9.15625 1.375 -9.144531 1.90625 -9.125 C 2.445312 -9.101562 2.847656 -9.09375 3.109375 -9.09375 C 3.222656 -9.09375 3.28125 -9.039062 3.28125 -8.9375 C 3.28125 -8.363281 3.257812 -7.503906 3.21875 -6.359375 C 3.175781 -5.210938 3.15625 -4.351562 3.15625 -3.78125 C 3.15625 -3.101562 3.226562 -2.644531 3.375 -2.40625 C 3.570312 -2.070312 3.972656 -1.90625 4.578125 -1.90625 C 5.472656 -1.90625 5.921875 -2.335938 5.921875 -3.203125 C 5.921875 -3.835938 5.90625 -4.785156 5.875 -6.046875 C 5.84375 -7.304688 5.828125 -8.253906 5.828125 -8.890625 C 5.828125 -9.023438 5.878906 -9.09375 5.984375 -9.09375 C 6.242188 -9.09375 6.628906 -9.101562 7.140625 -9.125 C 7.660156 -9.144531 8.050781 -9.15625 8.3125 -9.15625 C 8.4375 -9.15625 8.5 -9.101562 8.5 -9 C 8.5 -8.5 8.476562 -7.742188 8.4375 -6.734375 C 8.394531 -5.722656 8.375 -4.96875 8.375 -4.46875 C 8.375 -4.320312 8.375 -4.109375 8.375 -3.828125 C 8.382812 -3.546875 8.390625 -3.335938 8.390625 -3.203125 Z M 8.390625 -3.203125 "/></g></g></g><g fill="#000000" fill-opacity="1"><g transform="translate(1.79253, 27.940404)"><g><path d="M 3.796875 -3.546875 C 3.796875 -2.453125 3.707031 -1.609375 3.53125 -1.015625 C 3.207031 0.0351562 2.6875 0.863281 1.96875 1.46875 C 1.894531 1.539062 1.832031 1.578125 1.78125 1.578125 C 1.726562 1.578125 1.675781 1.550781 1.625 1.5 C 1.476562 1.3125 1.242188 1.039062 0.921875 0.6875 C 0.734375 0.53125 0.457031 0.285156 0.09375 -0.046875 C 0.0390625 -0.0976562 0.015625 -0.140625 0.015625 -0.171875 C 0.015625 -0.210938 0.0390625 -0.253906 0.09375 -0.296875 C 0.414062 -0.578125 0.617188 -0.769531 0.703125 -0.875 C 0.867188 -1.082031 1 -1.335938 1.09375 -1.640625 C 1.21875 -2.066406 1.28125 -2.757812 1.28125 -3.71875 C 1.28125 -5.957031 1.203125 -7.691406 1.046875 -8.921875 C 1.035156 -8.960938 1.03125 -8.992188 1.03125 -9.015625 C 1.03125 -9.097656 1.097656 -9.140625 1.234375 -9.140625 C 1.378906 -9.140625 1.585938 -9.128906 1.859375 -9.109375 C 2.128906 -9.097656 2.332031 -9.09375 2.46875 -9.09375 C 2.601562 -9.09375 2.796875 -9.097656 3.046875 -9.109375 C 3.304688 -9.128906 3.503906 -9.140625 3.640625 -9.140625 C 3.765625 -9.140625 3.828125 -9.082031 3.828125 -8.96875 C 3.828125 -8.363281 3.820312 -7.457031 3.8125 -6.25 C 3.800781 -5.050781 3.796875 -4.148438 3.796875 -3.546875 Z M 3.796875 -3.546875 "/></g></g><g transform="translate(6.291915, 27.940404)"><g><path d="M 8.390625 -3.203125 C 8.390625 -2.097656 8.253906 -1.34375 7.984375 -0.9375 C 7.503906 -0.195312 6.289062 0.171875 4.34375 0.171875 C 3.46875 0.171875 2.789062 0.101562 2.3125 -0.03125 C 1.5625 -0.25 1.070312 -0.660156 0.84375 -1.265625 C 0.726562 -1.566406 0.671875 -2.101562 0.671875 -2.875 C 0.671875 -3.050781 0.675781 -3.316406 0.6875 -3.671875 C 0.707031 -4.023438 0.71875 -4.289062 0.71875 -4.46875 C 0.71875 -4.96875 0.691406 -5.722656 0.640625 -6.734375 C 0.585938 -7.742188 0.5625 -8.5 0.5625 -9 C 0.5625 -9.101562 0.609375 -9.15625 0.703125 -9.15625 C 0.972656 -9.15625 1.375 -9.144531 1.90625 -9.125 C 2.445312 -9.101562 2.847656 -9.09375 3.109375 -9.09375 C 3.222656 -9.09375 3.28125 -9.039062 3.28125 -8.9375 C 3.28125 -8.363281 3.257812 -7.503906 3.21875 -6.359375 C 3.175781 -5.210938 3.15625 -4.351562 3.15625 -3.78125 C 3.15625 -3.101562 3.226562 -2.644531 3.375 -2.40625 C 3.570312 -2.070312 3.972656 -1.90625 4.578125 -1.90625 C 5.472656 -1.90625 5.921875 -2.335938 5.921875 -3.203125 C 5.921875 -3.835938 5.90625 -4.785156 5.875 -6.046875 C 5.84375 -7.304688 5.828125 -8.253906 5.828125 -8.890625 C 5.828125 -9.023438 5.878906 -9.09375 5.984375 -9.09375 C 6.242188 -9.09375 6.628906 -9.101562 7.140625 -9.125 C 7.660156 -9.144531 8.050781 -9.15625 8.3125 -9.15625 C 8.4375 -9.15625 8.5 -9.101562 8.5 -9 C 8.5 -8.5 8.476562 -7.742188 8.4375 -6.734375 C 8.394531 -5.722656 8.375 -4.96875 8.375 -4.46875 C 8.375 -4.320312 8.375 -4.109375 8.375 -3.828125 C 8.382812 -3.546875 8.390625 -3.335938 8.390625 -3.203125 Z M 8.390625 -3.203125 "/></g></g><g transform="translate(15.362413, 27.940404)"><g><path d="M 3.25 -4.828125 C 3.25 -4.304688 3.257812 -3.53125 3.28125 -2.5 C 3.3125 -1.46875 3.328125 -0.695312 3.328125 -0.1875 C 3.328125 -0.101562 3.304688 -0.0507812 3.265625 -0.03125 C 3.253906 -0.0195312 3.195312 -0.0078125 3.09375 0 C 2.8125 0.03125 2.4375 0.046875 1.96875 0.046875 C 1.332031 0.046875 0.925781 0.03125 0.75 0 C 0.625 -0.03125 0.5625 -0.0976562 0.5625 -0.203125 C 0.5625 -0.128906 0.582031 -0.507812 0.625 -1.34375 C 0.695312 -3.101562 0.734375 -4.265625 0.734375 -4.828125 C 0.734375 -5.285156 0.71875 -5.976562 0.6875 -6.90625 C 0.65625 -7.84375 0.640625 -8.546875 0.640625 -9.015625 C 0.640625 -9.109375 0.691406 -9.15625 0.796875 -9.15625 C 0.929688 -9.15625 1.132812 -9.144531 1.40625 -9.125 C 1.675781 -9.113281 1.878906 -9.109375 2.015625 -9.109375 C 2.148438 -9.109375 2.347656 -9.113281 2.609375 -9.125 C 2.867188 -9.144531 3.066406 -9.15625 3.203125 -9.15625 C 3.335938 -9.15625 3.40625 -9.109375 3.40625 -9.015625 C 3.40625 -8.546875 3.378906 -7.84375 3.328125 -6.90625 C 3.273438 -5.976562 3.25 -5.285156 3.25 -4.828125 Z M 3.25 -4.828125 "/></g></g><g transform="translate(19.34013, 27.940404)"><g><path d="M 8.21875 -1.46875 C 8.21875 -1.40625 8.171875 -1.316406 8.078125 -1.203125 C 7.273438 -0.242188 6.210938 0.234375 4.890625 0.234375 C 3.535156 0.234375 2.4375 -0.226562 1.59375 -1.15625 C 0.769531 -2.050781 0.359375 -3.179688 0.359375 -4.546875 C 0.359375 -5.867188 0.757812 -6.992188 1.5625 -7.921875 C 2.40625 -8.890625 3.472656 -9.375 4.765625 -9.375 C 6.171875 -9.375 7.273438 -8.9375 8.078125 -8.0625 C 8.171875 -7.96875 8.21875 -7.882812 8.21875 -7.8125 C 8.21875 -7.726562 8.066406 -7.421875 7.765625 -6.890625 C 7.460938 -6.359375 7.269531 -6.0625 7.1875 -6 C 7.15625 -5.96875 7.113281 -5.953125 7.0625 -5.953125 C 7.039062 -5.953125 6.929688 -6.035156 6.734375 -6.203125 C 6.492188 -6.410156 6.265625 -6.578125 6.046875 -6.703125 C 5.703125 -6.867188 5.34375 -6.953125 4.96875 -6.953125 C 4.332031 -6.953125 3.820312 -6.71875 3.4375 -6.25 C 3.082031 -5.800781 2.90625 -5.25 2.90625 -4.59375 C 2.90625 -3.9375 3.082031 -3.382812 3.4375 -2.9375 C 3.820312 -2.445312 4.332031 -2.203125 4.96875 -2.203125 C 5.34375 -2.203125 5.703125 -2.285156 6.046875 -2.453125 C 6.265625 -2.554688 6.488281 -2.707031 6.71875 -2.90625 C 6.914062 -3.070312 7.023438 -3.15625 7.046875 -3.15625 C 7.085938 -3.15625 7.128906 -3.128906 7.171875 -3.078125 C 7.242188 -3.003906 7.4375 -2.734375 7.75 -2.265625 C 8.0625 -1.785156 8.21875 -1.519531 8.21875 -1.46875 Z M 8.21875 -1.46875 "/></g></g><g transform="translate(27.660731, 27.940404)"><g><path d="M 7.28125 -2.03125 C 7.28125 -1.84375 7.242188 -1.5 7.171875 -1 C 7.085938 -0.457031 7.015625 -0.132812 6.953125 -0.03125 C 6.898438 0.0507812 6.832031 0.09375 6.75 0.09375 C 6.707031 0.09375 6.640625 0.0859375 6.546875 0.078125 C 6.234375 0.0351562 5.304688 0.015625 3.765625 0.015625 C 3.429688 0.015625 2.929688 0.0078125 2.265625 0 C 1.609375 0 1.117188 0 0.796875 0 C 0.648438 0 0.578125 -0.0625 0.578125 -0.1875 C 0.578125 -0.675781 0.601562 -1.40625 0.65625 -2.375 C 0.707031 -3.351562 0.734375 -4.085938 0.734375 -4.578125 C 0.734375 -5.078125 0.707031 -6.003906 0.65625 -7.359375 C 0.644531 -7.703125 0.625 -8.21875 0.59375 -8.90625 L 0.578125 -9 C 0.566406 -9.101562 0.625 -9.15625 0.75 -9.15625 C 1.0625 -9.15625 1.539062 -9.144531 2.1875 -9.125 C 2.832031 -9.101562 3.316406 -9.09375 3.640625 -9.09375 C 3.960938 -9.09375 4.441406 -9.101562 5.078125 -9.125 C 5.722656 -9.144531 6.203125 -9.15625 6.515625 -9.15625 C 6.742188 -9.15625 6.875 -9.066406 6.90625 -8.890625 C 6.925781 -8.796875 6.957031 -8.492188 7 -7.984375 C 7.050781 -7.484375 7.078125 -7.175781 7.078125 -7.0625 C 7.078125 -6.96875 7.035156 -6.921875 6.953125 -6.921875 C 6.921875 -6.921875 6.875 -6.925781 6.8125 -6.9375 C 5.65625 -7.03125 4.613281 -7.078125 3.6875 -7.078125 C 3.457031 -7.078125 3.316406 -7.023438 3.265625 -6.921875 C 3.242188 -6.867188 3.234375 -6.695312 3.234375 -6.40625 C 3.234375 -6.113281 3.273438 -5.921875 3.359375 -5.828125 C 3.441406 -5.742188 3.585938 -5.703125 3.796875 -5.703125 C 3.835938 -5.703125 3.921875 -5.703125 4.046875 -5.703125 C 4.171875 -5.710938 4.273438 -5.71875 4.359375 -5.71875 C 4.898438 -5.71875 5.453125 -5.734375 6.015625 -5.765625 C 6.066406 -5.765625 6.1875 -5.773438 6.375 -5.796875 C 6.519531 -5.816406 6.640625 -5.828125 6.734375 -5.828125 C 6.835938 -5.828125 6.890625 -5.773438 6.890625 -5.671875 C 6.890625 -5.765625 6.847656 -5.429688 6.765625 -4.671875 C 6.734375 -4.328125 6.71875 -3.984375 6.71875 -3.640625 C 6.71875 -3.546875 6.65625 -3.5 6.53125 -3.5 C 6.53125 -3.5 6.332031 -3.519531 5.9375 -3.5625 C 5.695312 -3.59375 5.132812 -3.609375 4.25 -3.609375 L 3.5625 -3.609375 C 3.375 -3.609375 3.265625 -3.566406 3.234375 -3.484375 C 3.234375 -3.453125 3.234375 -3.316406 3.234375 -3.078125 C 3.234375 -2.742188 3.253906 -2.53125 3.296875 -2.4375 C 3.367188 -2.269531 3.648438 -2.171875 4.140625 -2.140625 C 4.128906 -2.140625 4.445312 -2.140625 5.09375 -2.140625 C 5.320312 -2.140625 5.660156 -2.160156 6.109375 -2.203125 C 6.566406 -2.242188 6.910156 -2.265625 7.140625 -2.265625 C 7.234375 -2.265625 7.28125 -2.1875 7.28125 -2.03125 Z M 7.28125 -2.03125 "/></g></g></g></svg>