<svg xmlns="http://www.w3.org/2000/svg" xmlns:xlink="http://www.w3.org/1999/xlink" width="50" zoomAndPan="magnify" viewBox="0 0 37.5 37.499999" height="50" preserveAspectRatio="xMidYMid meet" version="1.0"><path fill="#000000" d="M 1.292969 15.097656 L 2.773438 15.097656 L 2.773438 15.152344 C 2.617188 15.152344 2.503906 15.203125 2.429688 15.300781 C 2.359375 15.394531 2.316406 15.554688 2.296875 15.769531 C 2.28125 15.988281 2.269531 16.285156 2.269531 16.652344 L 2.269531 20.632812 L 2.96875 20.632812 C 3.054688 20.632812 3.167969 20.632812 3.308594 20.625 C 3.449219 20.621094 3.601562 20.605469 3.765625 20.589844 C 3.933594 20.570312 4.09375 20.542969 4.257812 20.503906 C 4.421875 20.460938 4.570312 20.410156 4.707031 20.347656 C 4.84375 20.285156 4.953125 20.207031 5.035156 20.113281 C 5.121094 20.015625 5.160156 19.902344 5.160156 19.765625 L 5.214844 19.765625 L 5.214844 20.6875 L 1.292969 20.6875 L 1.292969 20.632812 C 1.453125 20.632812 1.566406 20.585938 1.636719 20.488281 C 1.707031 20.390625 1.753906 20.234375 1.769531 20.011719 C 1.789062 19.792969 1.796875 19.5 1.796875 19.132812 L 1.796875 16.652344 C 1.796875 16.285156 1.789062 15.988281 1.769531 15.769531 C 1.753906 15.554688 1.707031 15.394531 1.636719 15.300781 C 1.566406 15.203125 1.453125 15.152344 1.292969 15.152344 Z M 1.292969 15.097656 " fill-opacity="1" fill-rule="nonzero"/><path fill="#000000" d="M 7.023438 20.6875 L 5.542969 20.6875 L 5.542969 20.632812 C 5.699219 20.632812 5.8125 20.585938 5.882812 20.488281 C 5.957031 20.390625 6 20.234375 6.019531 20.011719 C 6.035156 19.792969 6.046875 19.5 6.046875 19.132812 L 6.046875 18.285156 C 6.046875 17.917969 6.035156 17.625 6.019531 17.40625 C 6 17.1875 5.957031 17.027344 5.882812 16.933594 C 5.8125 16.835938 5.699219 16.785156 5.542969 16.785156 L 5.542969 16.730469 L 6.519531 16.730469 L 6.519531 19.132812 C 6.519531 19.5 6.527344 19.792969 6.546875 20.011719 C 6.5625 20.234375 6.609375 20.390625 6.679688 20.488281 C 6.75 20.585938 6.863281 20.632812 7.023438 20.632812 Z M 5.886719 15.996094 C 5.886719 15.894531 5.921875 15.808594 5.996094 15.734375 C 6.066406 15.660156 6.152344 15.625 6.253906 15.625 C 6.355469 15.625 6.445312 15.660156 6.515625 15.734375 C 6.585938 15.808594 6.621094 15.894531 6.621094 15.996094 C 6.621094 16.101562 6.585938 16.191406 6.515625 16.265625 C 6.445312 16.335938 6.355469 16.371094 6.253906 16.371094 C 6.152344 16.371094 6.066406 16.335938 5.996094 16.265625 C 5.921875 16.191406 5.886719 16.101562 5.886719 15.996094 Z M 5.886719 15.996094 " fill-opacity="1" fill-rule="nonzero"/><path fill="#000000" d="M 7.296875 20.6875 L 7.296875 20.632812 C 7.453125 20.632812 7.566406 20.585938 7.636719 20.488281 C 7.710938 20.390625 7.753906 20.234375 7.773438 20.011719 C 7.789062 19.792969 7.800781 19.5 7.800781 19.132812 L 7.800781 16.277344 C 7.800781 16.109375 7.835938 15.949219 7.914062 15.792969 C 7.988281 15.640625 8.09375 15.5 8.222656 15.378906 C 8.359375 15.253906 8.511719 15.15625 8.691406 15.085938 C 8.871094 15.015625 9.066406 14.980469 9.277344 14.980469 C 9.445312 14.980469 9.601562 14.992188 9.742188 15.023438 C 9.878906 15.050781 10 15.078125 10.097656 15.109375 L 10.097656 15.734375 L 10.042969 15.734375 C 10.015625 15.550781 9.921875 15.394531 9.765625 15.265625 C 9.609375 15.136719 9.375 15.074219 9.0625 15.074219 C 8.867188 15.074219 8.71875 15.117188 8.609375 15.207031 C 8.503906 15.289062 8.421875 15.398438 8.375 15.523438 C 8.328125 15.652344 8.300781 15.78125 8.289062 15.914062 C 8.277344 16.042969 8.273438 16.15625 8.273438 16.25 L 8.273438 17.046875 C 8.308594 16.953125 8.367188 16.867188 8.453125 16.800781 C 8.535156 16.726562 8.640625 16.691406 8.765625 16.691406 C 8.863281 16.691406 8.949219 16.703125 9.019531 16.722656 C 9.089844 16.742188 9.167969 16.761719 9.25 16.78125 C 9.332031 16.804688 9.4375 16.816406 9.566406 16.816406 C 9.609375 16.816406 9.652344 16.808594 9.691406 16.789062 C 9.726562 16.773438 9.75 16.742188 9.765625 16.703125 L 9.78125 16.703125 C 9.804688 16.820312 9.777344 16.917969 9.699219 17 C 9.621094 17.078125 9.523438 17.113281 9.40625 17.109375 C 9.316406 17.109375 9.226562 17.09375 9.140625 17.0625 C 9.054688 17.035156 8.96875 17.007812 8.878906 16.980469 C 8.789062 16.953125 8.695312 16.9375 8.597656 16.9375 C 8.5 16.9375 8.421875 16.964844 8.363281 17.023438 C 8.304688 17.078125 8.273438 17.167969 8.273438 17.289062 L 8.273438 19.132812 C 8.273438 19.5 8.28125 19.792969 8.300781 20.011719 C 8.316406 20.234375 8.363281 20.390625 8.433594 20.488281 C 8.503906 20.585938 8.617188 20.632812 8.777344 20.632812 L 8.777344 20.6875 Z M 7.296875 20.6875 " fill-opacity="1" fill-rule="nonzero"/><path fill="#000000" d="M 12.308594 20.800781 C 12.011719 20.800781 11.746094 20.746094 11.511719 20.640625 C 11.28125 20.53125 11.085938 20.382812 10.925781 20.1875 C 10.765625 19.996094 10.640625 19.773438 10.554688 19.519531 C 10.46875 19.265625 10.425781 18.996094 10.425781 18.710938 C 10.425781 18.421875 10.46875 18.152344 10.554688 17.898438 C 10.640625 17.648438 10.765625 17.425781 10.925781 17.230469 C 11.085938 17.039062 11.28125 16.890625 11.511719 16.78125 C 11.746094 16.671875 12.011719 16.617188 12.308594 16.617188 C 12.601562 16.617188 12.855469 16.65625 13.070312 16.734375 C 13.28125 16.816406 13.453125 16.917969 13.589844 17.046875 C 13.726562 17.171875 13.824219 17.308594 13.886719 17.457031 C 13.953125 17.605469 13.984375 17.75 13.984375 17.894531 C 13.980469 18.210938 13.890625 18.460938 13.722656 18.640625 C 13.550781 18.816406 13.304688 18.90625 12.992188 18.90625 C 12.773438 18.90625 12.585938 18.882812 12.429688 18.832031 C 12.273438 18.78125 12.136719 18.722656 12.015625 18.65625 C 11.898438 18.589844 11.785156 18.535156 11.671875 18.484375 C 11.5625 18.433594 11.4375 18.410156 11.304688 18.410156 C 11.238281 18.410156 11.179688 18.425781 11.125 18.460938 C 11.070312 18.496094 11.042969 18.523438 11.035156 18.546875 L 11.011719 18.542969 C 11.011719 18.425781 11.058594 18.324219 11.15625 18.234375 C 11.253906 18.140625 11.398438 18.09375 11.589844 18.09375 C 11.730469 18.09375 11.867188 18.132812 11.996094 18.207031 C 12.121094 18.28125 12.246094 18.367188 12.363281 18.46875 C 12.476562 18.566406 12.589844 18.652344 12.699219 18.726562 C 12.808594 18.800781 12.921875 18.839844 13.03125 18.839844 C 13.164062 18.839844 13.277344 18.789062 13.363281 18.683594 C 13.453125 18.578125 13.511719 18.445312 13.546875 18.28125 C 13.582031 18.121094 13.585938 17.945312 13.558594 17.761719 C 13.527344 17.578125 13.464844 17.40625 13.363281 17.242188 C 13.265625 17.078125 13.128906 16.945312 12.953125 16.84375 C 12.777344 16.738281 12.558594 16.6875 12.296875 16.6875 C 12.070312 16.6875 11.878906 16.730469 11.71875 16.816406 C 11.558594 16.90625 11.425781 17.019531 11.320312 17.164062 C 11.214844 17.3125 11.128906 17.472656 11.0625 17.648438 C 11 17.824219 10.957031 18.003906 10.929688 18.183594 C 10.90625 18.367188 10.894531 18.535156 10.898438 18.695312 C 10.902344 18.953125 10.941406 19.199219 11.011719 19.429688 C 11.085938 19.660156 11.191406 19.867188 11.328125 20.042969 C 11.464844 20.222656 11.632812 20.359375 11.828125 20.460938 C 12.027344 20.558594 12.25 20.609375 12.503906 20.609375 C 12.613281 20.609375 12.734375 20.59375 12.871094 20.558594 C 13.003906 20.527344 13.140625 20.472656 13.28125 20.398438 C 13.417969 20.324219 13.542969 20.222656 13.65625 20.101562 C 13.773438 19.980469 13.863281 19.828125 13.929688 19.648438 L 14.007812 19.683594 C 13.863281 20.015625 13.648438 20.285156 13.355469 20.492188 C 13.066406 20.699219 12.714844 20.800781 12.308594 20.800781 Z M 12.308594 20.800781 " fill-opacity="1" fill-rule="nonzero"/><path fill="#000000" d="M 14.664062 17.894531 C 14.664062 17.472656 14.726562 17.085938 14.847656 16.734375 C 14.972656 16.378906 15.148438 16.074219 15.371094 15.8125 C 15.59375 15.546875 15.851562 15.347656 16.148438 15.203125 C 16.445312 15.058594 16.761719 14.984375 17.101562 14.984375 C 17.4375 14.984375 17.730469 15.011719 17.976562 15.058594 C 18.222656 15.109375 18.453125 15.167969 18.664062 15.242188 L 18.664062 15.992188 L 18.609375 15.992188 C 18.609375 15.992188 18.597656 15.960938 18.566406 15.898438 C 18.539062 15.835938 18.488281 15.757812 18.417969 15.664062 C 18.351562 15.570312 18.257812 15.476562 18.140625 15.382812 C 18.027344 15.289062 17.882812 15.210938 17.710938 15.148438 C 17.539062 15.085938 17.335938 15.054688 17.101562 15.054688 C 16.816406 15.054688 16.554688 15.125 16.320312 15.265625 C 16.082031 15.40625 15.875 15.605469 15.703125 15.859375 C 15.527344 16.117188 15.394531 16.417969 15.296875 16.761719 C 15.203125 17.105469 15.15625 17.484375 15.15625 17.894531 C 15.15625 18.300781 15.207031 18.675781 15.308594 19.023438 C 15.410156 19.371094 15.550781 19.671875 15.730469 19.925781 C 15.910156 20.183594 16.117188 20.378906 16.355469 20.519531 C 16.589844 20.664062 16.839844 20.734375 17.101562 20.734375 C 17.34375 20.734375 17.550781 20.6875 17.722656 20.601562 C 17.898438 20.511719 18.042969 20.40625 18.15625 20.28125 C 18.269531 20.160156 18.351562 20.039062 18.40625 19.921875 C 18.457031 19.808594 18.484375 19.726562 18.484375 19.675781 L 18.484375 18.886719 C 18.484375 18.667969 18.449219 18.496094 18.371094 18.367188 C 18.296875 18.242188 18.195312 18.148438 18.070312 18.089844 C 17.949219 18.03125 17.808594 17.992188 17.652344 17.976562 C 17.5 17.957031 17.339844 17.953125 17.175781 17.953125 C 17.015625 17.957031 16.859375 17.960938 16.714844 17.960938 C 16.582031 17.960938 16.460938 17.953125 16.355469 17.9375 C 16.246094 17.917969 16.160156 17.882812 16.09375 17.828125 C 16.03125 17.769531 16 17.6875 16 17.578125 C 16 17.417969 16.046875 17.289062 16.136719 17.1875 C 16.230469 17.082031 16.34375 17.007812 16.476562 16.953125 C 16.605469 16.902344 16.726562 16.875 16.835938 16.875 C 17.039062 16.875 17.222656 16.902344 17.390625 16.949219 C 17.554688 17.003906 17.710938 17.0625 17.859375 17.132812 C 18.007812 17.199219 18.160156 17.257812 18.3125 17.308594 C 18.46875 17.359375 18.632812 17.382812 18.808594 17.382812 C 18.9375 17.382812 19.027344 17.371094 19.085938 17.339844 C 19.140625 17.3125 19.175781 17.285156 19.1875 17.257812 C 19.199219 17.230469 19.207031 17.214844 19.207031 17.214844 C 19.238281 17.332031 19.226562 17.433594 19.179688 17.515625 C 19.132812 17.59375 19.0625 17.65625 18.964844 17.699219 C 18.871094 17.742188 18.769531 17.761719 18.65625 17.761719 C 18.492188 17.761719 18.320312 17.738281 18.148438 17.683594 C 17.976562 17.632812 17.808594 17.570312 17.640625 17.5 C 17.472656 17.425781 17.308594 17.363281 17.152344 17.308594 C 16.996094 17.257812 16.847656 17.230469 16.714844 17.230469 C 16.546875 17.230469 16.394531 17.257812 16.261719 17.320312 C 16.128906 17.382812 16.0625 17.476562 16.0625 17.609375 C 16.0625 17.703125 16.097656 17.769531 16.171875 17.8125 C 16.246094 17.855469 16.351562 17.882812 16.480469 17.890625 C 16.609375 17.902344 16.757812 17.902344 16.921875 17.898438 C 17.082031 17.898438 17.25 17.894531 17.421875 17.894531 C 17.609375 17.894531 17.792969 17.90625 17.972656 17.925781 C 18.15625 17.945312 18.320312 17.988281 18.46875 18.058594 C 18.617188 18.125 18.738281 18.222656 18.824219 18.355469 C 18.910156 18.488281 18.957031 18.664062 18.957031 18.886719 L 18.957031 19.691406 C 18.75 20.042969 18.484375 20.316406 18.167969 20.511719 C 17.847656 20.703125 17.492188 20.800781 17.101562 20.800781 C 16.761719 20.800781 16.445312 20.730469 16.148438 20.585938 C 15.851562 20.441406 15.59375 20.238281 15.371094 19.976562 C 15.148438 19.714844 14.972656 19.40625 14.847656 19.050781 C 14.726562 18.695312 14.664062 18.3125 14.664062 17.894531 Z M 14.664062 17.894531 " fill-opacity="1" fill-rule="nonzero"/><path fill="#000000" d="M 21.027344 20.6875 L 19.546875 20.6875 L 19.546875 20.632812 C 19.703125 20.632812 19.816406 20.585938 19.890625 20.488281 C 19.960938 20.390625 20.003906 20.234375 20.023438 20.011719 C 20.039062 19.792969 20.050781 19.5 20.050781 19.132812 L 20.050781 18.285156 C 20.050781 17.917969 20.039062 17.625 20.023438 17.40625 C 20.003906 17.1875 19.960938 17.027344 19.890625 16.933594 C 19.816406 16.835938 19.703125 16.785156 19.546875 16.785156 L 19.546875 16.730469 L 20.183594 16.730469 C 20.496094 16.730469 20.824219 16.710938 21.164062 16.675781 C 21.503906 16.636719 21.828125 16.617188 22.128906 16.617188 C 22.375 16.617188 22.578125 16.679688 22.738281 16.800781 C 22.898438 16.917969 22.976562 17.085938 22.976562 17.300781 C 22.976562 17.449219 22.9375 17.578125 22.859375 17.683594 C 22.78125 17.789062 22.664062 17.84375 22.507812 17.84375 C 22.429688 17.84375 22.359375 17.820312 22.296875 17.773438 C 22.234375 17.726562 22.203125 17.664062 22.203125 17.585938 C 22.28125 17.582031 22.351562 17.539062 22.410156 17.460938 C 22.472656 17.378906 22.503906 17.28125 22.503906 17.164062 C 22.503906 17.035156 22.453125 16.925781 22.355469 16.835938 C 22.261719 16.742188 22.113281 16.695312 21.914062 16.695312 C 21.828125 16.695312 21.722656 16.703125 21.597656 16.710938 C 21.472656 16.71875 21.34375 16.726562 21.207031 16.742188 C 21.070312 16.757812 20.941406 16.773438 20.820312 16.792969 C 20.695312 16.8125 20.597656 16.832031 20.523438 16.859375 L 20.523438 19.132812 C 20.523438 19.5 20.53125 19.792969 20.550781 20.011719 C 20.566406 20.234375 20.613281 20.390625 20.683594 20.488281 C 20.753906 20.585938 20.871094 20.632812 21.027344 20.632812 Z M 21.027344 20.6875 " fill-opacity="1" fill-rule="nonzero"/><path fill="#000000" d="M 25.296875 20.800781 C 25 20.800781 24.738281 20.746094 24.503906 20.640625 C 24.273438 20.53125 24.074219 20.382812 23.914062 20.1875 C 23.753906 19.996094 23.628906 19.773438 23.546875 19.519531 C 23.460938 19.265625 23.417969 18.996094 23.417969 18.710938 C 23.417969 18.421875 23.460938 18.152344 23.546875 17.898438 C 23.628906 17.648438 23.753906 17.425781 23.914062 17.230469 C 24.074219 17.039062 24.273438 16.890625 24.503906 16.78125 C 24.738281 16.671875 25 16.617188 25.296875 16.617188 C 25.59375 16.617188 25.847656 16.65625 26.058594 16.734375 C 26.269531 16.816406 26.445312 16.917969 26.582031 17.046875 C 26.714844 17.171875 26.816406 17.308594 26.878906 17.457031 C 26.941406 17.605469 26.972656 17.75 26.972656 17.894531 C 26.96875 18.210938 26.882812 18.460938 26.710938 18.640625 C 26.539062 18.816406 26.296875 18.90625 25.980469 18.90625 C 25.761719 18.90625 25.574219 18.882812 25.417969 18.832031 C 25.265625 18.78125 25.128906 18.722656 25.007812 18.65625 C 24.890625 18.589844 24.773438 18.535156 24.664062 18.484375 C 24.550781 18.433594 24.429688 18.410156 24.292969 18.410156 C 24.226562 18.410156 24.167969 18.425781 24.117188 18.460938 C 24.0625 18.496094 24.03125 18.523438 24.027344 18.546875 L 24.003906 18.542969 C 24.003906 18.425781 24.050781 18.324219 24.148438 18.234375 C 24.246094 18.140625 24.386719 18.09375 24.578125 18.09375 C 24.71875 18.09375 24.855469 18.132812 24.984375 18.207031 C 25.113281 18.28125 25.234375 18.367188 25.351562 18.46875 C 25.46875 18.566406 25.582031 18.652344 25.691406 18.726562 C 25.800781 18.800781 25.910156 18.839844 26.019531 18.839844 C 26.15625 18.839844 26.265625 18.789062 26.355469 18.683594 C 26.441406 18.578125 26.503906 18.445312 26.535156 18.28125 C 26.574219 18.121094 26.578125 17.945312 26.546875 17.761719 C 26.519531 17.578125 26.453125 17.40625 26.355469 17.242188 C 26.257812 17.078125 26.121094 16.945312 25.941406 16.84375 C 25.769531 16.738281 25.546875 16.6875 25.285156 16.6875 C 25.0625 16.6875 24.871094 16.730469 24.710938 16.816406 C 24.550781 16.90625 24.417969 17.019531 24.3125 17.164062 C 24.203125 17.3125 24.117188 17.472656 24.054688 17.648438 C 23.992188 17.824219 23.945312 18.003906 23.921875 18.183594 C 23.894531 18.367188 23.882812 18.535156 23.886719 18.695312 C 23.890625 18.953125 23.929688 19.199219 24.003906 19.429688 C 24.074219 19.660156 24.179688 19.867188 24.320312 20.042969 C 24.457031 20.222656 24.621094 20.359375 24.820312 20.460938 C 25.015625 20.558594 25.242188 20.609375 25.492188 20.609375 C 25.601562 20.609375 25.726562 20.59375 25.859375 20.558594 C 25.996094 20.527344 26.132812 20.472656 26.269531 20.398438 C 26.40625 20.324219 26.53125 20.222656 26.648438 20.101562 C 26.765625 19.980469 26.855469 19.828125 26.921875 19.648438 L 26.996094 19.683594 C 26.855469 20.015625 26.636719 20.285156 26.347656 20.492188 C 26.054688 20.699219 25.707031 20.800781 25.296875 20.800781 Z M 25.296875 20.800781 " fill-opacity="1" fill-rule="nonzero"/><path fill="#000000" d="M 29.535156 20.800781 C 29.238281 20.800781 28.972656 20.746094 28.742188 20.640625 C 28.507812 20.53125 28.3125 20.382812 28.152344 20.1875 C 27.992188 19.996094 27.867188 19.773438 27.78125 19.519531 C 27.695312 19.265625 27.652344 18.996094 27.652344 18.710938 C 27.652344 18.421875 27.695312 18.152344 27.78125 17.898438 C 27.867188 17.648438 27.992188 17.425781 28.152344 17.230469 C 28.3125 17.039062 28.507812 16.890625 28.742188 16.78125 C 28.972656 16.671875 29.238281 16.617188 29.535156 16.617188 C 29.828125 16.617188 30.082031 16.65625 30.296875 16.734375 C 30.507812 16.816406 30.683594 16.917969 30.816406 17.046875 C 30.953125 17.171875 31.050781 17.308594 31.117188 17.457031 C 31.179688 17.605469 31.210938 17.75 31.210938 17.894531 C 31.207031 18.210938 31.121094 18.460938 30.949219 18.640625 C 30.777344 18.816406 30.535156 18.90625 30.21875 18.90625 C 30 18.90625 29.8125 18.882812 29.65625 18.832031 C 29.5 18.78125 29.363281 18.722656 29.246094 18.65625 C 29.125 18.589844 29.011719 18.535156 28.898438 18.484375 C 28.789062 18.433594 28.664062 18.410156 28.53125 18.410156 C 28.464844 18.410156 28.40625 18.425781 28.351562 18.460938 C 28.300781 18.496094 28.269531 18.523438 28.261719 18.546875 L 28.238281 18.542969 C 28.238281 18.425781 28.289062 18.324219 28.382812 18.234375 C 28.480469 18.140625 28.625 18.09375 28.816406 18.09375 C 28.957031 18.09375 29.09375 18.132812 29.222656 18.207031 C 29.351562 18.28125 29.472656 18.367188 29.589844 18.46875 C 29.707031 18.566406 29.820312 18.652344 29.929688 18.726562 C 30.039062 18.800781 30.148438 18.839844 30.257812 18.839844 C 30.390625 18.839844 30.503906 18.789062 30.589844 18.683594 C 30.679688 18.578125 30.738281 18.445312 30.773438 18.28125 C 30.808594 18.121094 30.8125 17.945312 30.785156 17.761719 C 30.753906 17.578125 30.691406 17.40625 30.589844 17.242188 C 30.492188 17.078125 30.355469 16.945312 30.179688 16.84375 C 30.003906 16.738281 29.785156 16.6875 29.523438 16.6875 C 29.300781 16.6875 29.105469 16.730469 28.945312 16.816406 C 28.785156 16.90625 28.652344 17.019531 28.546875 17.164062 C 28.441406 17.3125 28.355469 17.472656 28.289062 17.648438 C 28.226562 17.824219 28.183594 18.003906 28.15625 18.183594 C 28.132812 18.367188 28.121094 18.535156 28.125 18.695312 C 28.128906 18.953125 28.167969 19.199219 28.238281 19.429688 C 28.3125 19.660156 28.417969 19.867188 28.554688 20.042969 C 28.691406 20.222656 28.859375 20.359375 29.058594 20.460938 C 29.253906 20.558594 29.476562 20.609375 29.730469 20.609375 C 29.839844 20.609375 29.960938 20.59375 30.097656 20.558594 C 30.234375 20.527344 30.367188 20.472656 30.507812 20.398438 C 30.644531 20.324219 30.769531 20.222656 30.882812 20.101562 C 31 19.980469 31.089844 19.828125 31.15625 19.648438 L 31.234375 19.683594 C 31.089844 20.015625 30.875 20.285156 30.582031 20.492188 C 30.292969 20.699219 29.941406 20.800781 29.535156 20.800781 Z M 29.535156 20.800781 " fill-opacity="1" fill-rule="nonzero"/><path fill="#000000" d="M 31.726562 20.632812 C 31.882812 20.632812 31.996094 20.585938 32.066406 20.488281 C 32.140625 20.390625 32.183594 20.234375 32.203125 20.011719 C 32.21875 19.792969 32.230469 19.5 32.230469 19.132812 L 32.230469 18.285156 C 32.230469 17.917969 32.21875 17.625 32.203125 17.40625 C 32.183594 17.1875 32.140625 17.027344 32.066406 16.933594 C 31.996094 16.835938 31.882812 16.785156 31.726562 16.785156 L 31.726562 16.730469 L 32.351562 16.730469 C 32.5 16.730469 32.667969 16.722656 32.851562 16.703125 C 33.035156 16.683594 33.214844 16.667969 33.386719 16.648438 C 33.558594 16.628906 33.695312 16.617188 33.796875 16.617188 C 33.898438 16.617188 34.007812 16.625 34.132812 16.640625 C 34.261719 16.652344 34.390625 16.679688 34.523438 16.722656 C 34.652344 16.765625 34.777344 16.832031 34.886719 16.921875 C 35 17.011719 35.089844 17.132812 35.15625 17.285156 C 35.226562 17.4375 35.261719 17.628906 35.261719 17.867188 L 35.261719 19.132812 C 35.261719 19.5 35.269531 19.792969 35.289062 20.011719 C 35.308594 20.234375 35.351562 20.390625 35.421875 20.488281 C 35.492188 20.585938 35.609375 20.632812 35.765625 20.632812 L 35.765625 20.6875 L 34.285156 20.6875 L 34.285156 20.632812 C 34.441406 20.632812 34.558594 20.585938 34.628906 20.488281 C 34.699219 20.390625 34.742188 20.234375 34.761719 20.011719 C 34.78125 19.792969 34.789062 19.5 34.789062 19.132812 C 34.789062 19.101562 34.789062 19.042969 34.789062 18.953125 C 34.789062 18.867188 34.789062 18.765625 34.789062 18.65625 C 34.789062 18.546875 34.789062 18.441406 34.789062 18.335938 C 34.785156 18.234375 34.785156 18.148438 34.785156 18.082031 C 34.785156 18.015625 34.785156 17.984375 34.785156 17.984375 C 34.785156 17.734375 34.753906 17.527344 34.695312 17.367188 C 34.632812 17.207031 34.554688 17.082031 34.457031 16.988281 C 34.363281 16.898438 34.257812 16.832031 34.148438 16.789062 C 34.035156 16.746094 33.925781 16.722656 33.820312 16.710938 C 33.714844 16.703125 33.625 16.695312 33.550781 16.695312 C 33.410156 16.695312 33.269531 16.710938 33.117188 16.742188 C 32.972656 16.769531 32.832031 16.8125 32.703125 16.859375 L 32.703125 19.132812 C 32.703125 19.5 32.710938 19.792969 32.726562 20.011719 C 32.746094 20.234375 32.792969 20.390625 32.863281 20.488281 C 32.933594 20.585938 33.046875 20.632812 33.207031 20.632812 L 33.207031 20.6875 L 31.726562 20.6875 Z M 31.726562 20.632812 " fill-opacity="1" fill-rule="nonzero"/></svg>